PathFileType	4	(X/Y/Z)	OpenSim_Sub04_EMGStiffKnee_Gyro.trc
DataRate	CameraRate	NumFrames	NumMarkers	Units	OrigDataRate	OrigDataStartFrame	OrigNumFrames
100	100	37	8	m	100	1035	8277
Frame#	Time	torso_imu_offset_imu	pelvis_imu_offset_imu	tibia_r_imu_offset_imu	femur_r_imu_offset_imu	tibia_l_imu_offset_imu	femur_l_imu_offset_imu	toes_r_imu_offset_imu	toes_l_imu_offset_imu
				X1	Y1	Z1	X2	Y2	Z2	X3	Y3	Z3	X4	Y4	Z4	X5	Y5	Z5	X6	Y6	Z6	X7	Y7	Z7	X8		Y8	Z8	

1035	10.34000000	0.11013232	0.28376167	0.12323798	0.26765818	0.17007103	0.32543337	-0.70555897	1.28419560	4.73074693	1.68296781	0.02809613	0.50611320	0.49511447	-0.17378484	0.60534061	0.15218973	-0.36010174	0.78013034	-0.40227403	4.50134856	1.23191979	-0.05818325	-0.07279138	0.30610591
1036	10.35000000	0.08455474	0.24920937	0.15505336	0.32343147	0.17541087	0.30671734	-0.79364033	1.20806721	4.70891795	1.89654867	0.03437401	0.35598310	0.52906057	-0.16412000	0.61487915	0.14321723	-0.33111783	0.81534144	-0.50900462	4.47348824	1.24023148	-0.04452900	-0.07142554	0.30233369
1037	10.36000000	0.05332096	0.22310072	0.17706559	0.37603394	0.19706623	0.28548053	-0.80483119	1.11140807	4.60717552	2.06668499	0.07714485	0.20489527	0.55893474	-0.14531205	0.63700343	0.23703686	-0.29354718	0.83637626	-0.63409184	4.28977811	1.23446742	-0.02786725	-0.08160760	0.29895697
1038	10.37000000	0.04048430	0.19445775	0.18546754	0.41335202	0.21649383	0.27230315	-0.83067916	1.01985401	4.40300334	2.07961923	0.10728574	0.06680907	0.57649784	-0.12894307	0.65428200	0.37416835	-0.25573206	0.85788604	-0.58827350	4.00055345	1.27680235	0.00533313	-0.09332255	0.29451595
1039	10.38000000	0.01917910	0.16694528	0.18142413	0.44834737	0.22155670	0.25037586	-0.84767503	0.98663838	4.10191111	1.83062547	0.09230521	-0.05907257	0.58720601	-0.12415118	0.67203657	0.50803662	-0.21695032	0.87633160	-0.41224442	3.71103397	1.47905756	0.01312273	-0.10646820	0.29009450
1040	10.39000000	-0.01824783	0.15777240	0.17569631	0.47979639	0.19478738	0.21197368	-0.73249095	0.99350572	3.74254548	1.35543515	0.06263054	-0.18372443	0.57613710	-0.12008382	0.71060798	0.61713429	-0.18272565	0.88890355	-0.24829370	3.37025306	1.79078040	0.00770821	-0.12734489	0.29294592
1041	10.40000000	-0.04650639	0.15035251	0.17121399	0.51544369	0.15040302	0.18289394	-0.49503842	0.99214712	3.36842871	0.74172544	0.08109701	-0.28337170	0.55429672	-0.11366641	0.76152625	0.67703086	-0.15130757	0.89138758	-0.17109242	2.94276379	2.07795959	0.02442556	-0.13857248	0.29698143
1042	10.41000000	-0.07646072	0.13673182	0.16631661	0.55127411	0.12809992	0.15529755	-0.26207237	0.99356392	3.01066392	0.05553073	0.16528766	-0.34787251	0.54205291	-0.09623606	0.81742964	0.71900017	-0.12687530	0.88892712	-0.09004026	2.50494402	2.20893488	0.07308982	-0.16072454	0.30234460
1043	10.42000000	-0.10692285	0.11907435	0.15956056	0.57319100	0.12842119	0.13634424	-0.01095410	0.98463284	2.67257636	-0.65687936	0.24038122	-0.37635778	0.51211126	-0.08129750	0.86876918	0.75391573	-0.13035398	0.86712083	0.02114371	2.06353636	2.11299614	0.11202818	-0.18064196	0.30296342
1044	10.43000000	-0.14274488	0.09624728	0.15740864	0.58121503	0.13228845	0.12315537	0.26004578	0.90117011	2.32523052	-1.31095616	0.19615007	-0.35554339	0.46898617	-0.07876021	0.93053575	0.75076365	-0.14291442	0.82953921	0.07236442	1.65836628	1.81804254	0.15865735	-0.20618874	0.31156286
1045	10.44000000	-0.18526764	0.06538202	0.15209361	0.58318101	0.13878000	0.11616840	0.41106261	0.73611622	1.94405469	-1.74879137	0.00601724	-0.29179316	0.46640019	-0.08287205	1.00759170	0.72073265	-0.15086936	0.79151598	0.01820911	1.43931166	1.46256568	0.12903516	-0.29264909	0.33854014
1046	10.45000000	-0.21562192	0.03118225	0.14280316	0.58025043	0.16081367	0.10686428	0.45797040	0.53075227	1.52173772	-1.80946537	-0.24452953	-0.21227009	0.51603607	-0.07254521	1.09678147	0.71123899	-0.14735777	0.74506876	0.27449090	0.91218934	0.86176849	0.18690287	-0.39921903	0.31578258
1047	10.46000000	-0.24456030	0.00194410	0.13900877	0.56258388	0.19543507	0.10625435	0.50610892	0.25284544	1.05868042	-1.49455204	-0.44230611	-0.16612049	0.62318177	-0.05569124	1.16924430	0.75052077	-0.09388045	0.69447584	0.84207580	0.32769075	0.10856162	0.29057196	-0.48834468	0.28844304
1048	10.47000000	-0.27993851	-0.02842677	0.14611603	0.54906555	0.22694742	0.10624819	0.46652943	-0.02524202	0.53801896	-1.03807422	-0.53873127	-0.13393346	0.68168345	-0.06757734	1.24374307	0.83032579	0.01369057	0.64886449	1.27002954	-0.03045746	-0.54007973	0.27531114	-0.60827277	0.30617027
1049	10.48000000	-0.29828815	-0.06902853	0.16375237	0.54429692	0.27220436	0.09902089	0.39092338	-0.24764772	-0.05772515	-0.63126420	-0.58813957	-0.05452367	0.67058803	-0.06596642	1.33758715	0.95346994	0.12296692	0.62417356	1.33279892	-1.13070905	-0.78629759	0.35118133	-0.72591099	0.28474338
1050	10.49000000	-0.29820777	-0.11874863	0.18698698	0.51813765	0.34836076	0.10023123	0.28679319	-0.57810448	-0.72326287	-0.28269111	-0.68378483	0.08651850	0.65929004	-0.03684662	1.41984208	1.08737257	0.19695323	0.60495926	0.97653728	-2.28509698	-0.45219954	0.44202065	-0.83846903	0.24677571
1051	10.50000000	-0.28779916	-0.17445695	0.21779408	0.47834499	0.44575523	0.10151004	-0.07150352	-0.84056274	-1.55315087	-0.00971049	-0.84362186	0.27989967	0.61148242	-0.01069496	1.47944542	1.16754865	0.23438089	0.58723538	-0.07414517	-2.86579415	0.79046537	0.52201658	-0.99399201	0.22940928
1052	10.51000000	-0.26762060	-0.22970757	0.25888309	0.40977026	0.54748958	0.10428173	-0.12152061	-0.86444017	-2.51071640	0.22425521	-0.95616585	0.44458382	0.52011252	0.00239647	1.52374912	1.18341007	0.26899034	0.58960582	3.71642701	-1.28660092	-0.64774056	0.59693528	-1.17589168	0.18465617
1053	10.52000000	-0.22329383	-0.25919378	0.29856518	0.22457421	0.64030209	0.09539331	0.25779272	-1.14533633	-3.15263090	0.46493180	-0.84427913	0.53007217	0.40487577	0.03677732	1.59331012	1.11699970	0.29784250	0.58144582	3.21549412	0.05765856	-1.80629436	0.67639329	-1.41026966	0.11789441
1054	10.53000000	-0.15033032	-0.22194581	0.32037219	-0.02867772	0.60933145	0.07178005	-0.22395902	-1.13053551	-3.08281713	0.64627411	-0.58269013	0.48732351	0.31830255	0.07643789	1.67913179	0.90713824	0.29491714	0.55302053	-0.26607700	-0.95877259	-0.57318338	0.78780682	-1.70404405	0.06453331
1055	10.54000000	-0.09572700	-0.15773173	0.29554829	-0.14037532	0.35525611	0.05555650	-0.09211563	-0.14176476	-2.20498660	0.87895425	-0.60506572	0.21865118	0.30642629	0.08028739	1.74526885	0.54066869	0.28229367	0.50872506	1.46494650	-0.66938845	-0.55547513	0.91814879	-1.99717763	0.02125084
1056	10.55000000	-0.04231855	-0.14541602	0.24282188	-0.07107111	0.12063549	0.09066733	1.43487342	0.47158756	-1.09573310	1.21460301	-0.79884085	-0.14155396	0.34272305	0.06926092	1.79366455	0.13992498	0.27677430	0.40832037	1.18213364	-0.38593997	-0.44395259	1.03107976	-2.30708930	-0.00911241
1057	10.56000000	0.01981721	-0.19136306	0.19375944	0.00861652	0.08414867	0.17678282	2.04185332	0.09315664	-0.66300837	1.47381934	-0.74972277	-0.31649658	0.33703690	0.05441029	1.86949407	-0.18068735	0.29302925	0.25255972	0.75171559	-0.31698804	-0.35401600	0.98146668	-2.67392454	-0.00819144
1058	10.57000000	0.05449221	-0.24256785	0.14622550	0.01921229	0.08316246	0.24055664	2.01118105	-0.29895851	-1.02793043	1.44074387	-0.56071970	-0.38329120	0.36834387	0.01837306	1.96425356	-0.33819793	0.35961146	0.08047536	0.41075552	0.03976414	-0.32418468	0.98785591	-3.03633279	0.01060618
1059	10.58000000	0.04867621	-0.24455666	0.09527745	-0.02800216	0.03105323	0.23774998	1.81261797	-0.52358621	-1.40476117	1.19406591	-0.45851442	-0.41407262	0.44285451	-0.03140164	2.04644219	-0.24932941	0.46232454	-0.09265142	0.39133472	-0.01429113	-0.35139855	1.10121254	-3.35735519	0.03020722
1060	10.59000000	0.01518534	-0.22311715	0.05263284	-0.08718875	-0.01827564	0.19332768	1.27406369	-0.68158276	-1.42773628	0.79308584	-0.54436201	-0.39643534	0.53745071	-0.07495473	2.11221895	-0.02733342	0.57253512	-0.25247017	0.39496935	0.07859188	-0.28385375	1.26194854	-3.64714069	-0.00900943
1061	10.60000000	-0.00764745	-0.19989437	0.02616445	-0.09062707	-0.02488215	0.13855953	0.95482076	-0.54501612	-1.45802597	0.30490334	-0.67815942	-0.48599766	0.68328178	-0.09768880	2.14125841	0.18152383	0.69804260	-0.38900940	0.11362387	0.01679697	-0.15338159	1.34611478	-3.81112590	0.04287713
1062	10.61000000	-0.05774165	-0.16644838	0.01169411	-0.02173984	0.04223251	0.08686231	0.74912951	-0.51114714	-1.43548572	-0.08785482	-0.74225356	-0.70874965	0.73320568	-0.06067845	2.17782668	0.36456474	0.83431934	-0.52262612	0.11440616	0.03672410	-0.12460403	1.39184332	-3.96938431	0.18564727
1063	10.62000000	-0.10040707	-0.13788275	0.00652472	0.06341093	0.13146361	0.05177022	0.45604281	-0.63536184	-1.16066654	-0.56121069	-0.75570645	-1.02313136	0.67579362	-0.09274826	2.21866889	0.46778034	0.93034315	-0.65267337	0.10347950	0.04652014	-0.13181068	1.38458593	-4.08515622	0.37323029
1064	10.63000000	-0.11512670	-0.12630199	-0.00718224	0.11323985	0.15014042	0.01943506	0.17897823	-0.55098965	-0.74703114	-1.06225356	-0.69694587	-1.34246554	0.53401498	-0.13313801	2.20202313	0.44837328	0.98777968	-0.76695578	0.11029483	0.02848285	-0.13597675	1.54987935	-4.04969031	0.60891658
1065	10.64000000	-0.13693627	-0.11374416	-0.02594515	0.13460427	0.09552572	-0.02831647	0.09615950	-0.45030821	-0.39003691	-1.37777793	-0.59242505	-1.56844110	0.21245246	-0.08957521	2.10412270	0.38921556	1.05308364	-0.83284763	0.09571542	0.00743435	-0.11889945	2.03330969	-3.93609529	0.81753289
1066	10.65000000	-0.14680961	-0.09872413	-0.03128304	0.13344830	0.03663407	-0.08399933	0.05341625	-0.38960253	-0.24073623	-1.55789434	-0.49861203	-1.67481743	-0.24734432	-0.10108665	1.94308056	0.32123924	1.07415976	-0.83644881	0.03449997	-0.03245062	-0.05588932	2.44874490	-3.73544140	1.06817275
1067	10.66000000	-0.16112328	-0.08850584	-0.02048920	0.11725341	0.01073763	-0.13647198	-0.02890426	-0.33009618	-0.34722641	-1.66844533	-0.46229131	-1.67903469	-0.71517068	-0.12854232	1.76841468	0.18930925	0.98699318	-0.80172888	-0.02596095	-0.12366514	0.00631384	3.00429770	-3.22788497	1.19620748
1068	10.67000000	-0.18034126	-0.07897841	-0.00622241	0.09280933	-0.01440735	-0.19327187	0.01711042	-0.36940937	-0.57886189	-1.67014109	-0.49477311	-1.58676343	-1.10272647	-0.14680970	1.59163933	-0.06357897	0.79647826	-0.73428567	-0.04537006	-0.21370034	0.03492532	3.32215403	-2.49787309	1.20168419
1069	10.68000000	-0.19881207	-0.07769429	0.00868310	0.05500129	-0.05247762	-0.25189952	0.06689420	-0.38271570	-0.74437752	-1.53137381	-0.54366401	-1.42689822	-1.28834043	-0.20668463	1.41368624	-0.37866435	0.58919104	-0.64603094	-0.04462882	-0.25746701	0.05851026	3.23935067	-1.87210367	1.00811377
1070	10.69000000	-0.22831447	-0.07925757	0.01246427	0.01735938	-0.08710053	-0.28787680	0.03896155	-0.34634031	-0.77998577	-1.29511816	-0.52390099	-1.24751145	-1.30670105	-0.23770016	1.30255982	-0.60946701	0.45350571	-0.56804320	-0.07883030	-0.29608561	0.10125914	1.86183818	-0.82381936	0.59816234
1071	10.70000000	-0.25233756	-0.09652307	0.01501183	-0.02125143	-0.11919688	-0.30439680	-0.03697488	-0.32212481	-0.73132839	-1.01364330	-0.43803703	-1.10133212	-1.07548010	-0.28783536	1.19380024	-0.71846500	0.35559624	-0.50475550	-0.07281673	-0.32863454	0.12118156	0.59920149	-0.10976700	0.00141911
